G04 #@! TF.GenerationSoftware,KiCad,Pcbnew,5.1.7-a382d34a8~87~ubuntu20.04.1*
G04 #@! TF.CreationDate,2021-01-04T03:10:59+05:30*
G04 #@! TF.ProjectId,ai03-pcb-guide,61693033-2d70-4636-922d-67756964652e,rev?*
G04 #@! TF.SameCoordinates,Original*
G04 #@! TF.FileFunction,Copper,L1,Top*
G04 #@! TF.FilePolarity,Positive*
%FSLAX46Y46*%
G04 Gerber Fmt 4.6, Leading zero omitted, Abs format (unit mm)*
G04 Created by KiCad (PCBNEW 5.1.7-a382d34a8~87~ubuntu20.04.1) date 2021-01-04 03:10:59*
%MOMM*%
%LPD*%
G01*
G04 APERTURE LIST*
G04 #@! TA.AperFunction,ComponentPad*
%ADD10C,2.400000*%
G04 #@! TD*
G04 #@! TA.AperFunction,ComponentPad*
%ADD11C,1.600000*%
G04 #@! TD*
G04 #@! TA.AperFunction,ComponentPad*
%ADD12R,1.600000X1.600000*%
G04 #@! TD*
G04 #@! TA.AperFunction,ComponentPad*
%ADD13O,2.400000X2.400000*%
G04 #@! TD*
G04 #@! TA.AperFunction,ComponentPad*
%ADD14R,2.400000X2.400000*%
G04 #@! TD*
G04 #@! TA.AperFunction,ComponentPad*
%ADD15C,2.200000*%
G04 #@! TD*
G04 #@! TA.AperFunction,Conductor*
%ADD16C,0.254000*%
G04 #@! TD*
G04 APERTURE END LIST*
D10*
X190563500Y-64798000D03*
X191579500Y-126266000D03*
X49847500Y-124996000D03*
X46037500Y-64544000D03*
D11*
X66103500Y-65052000D03*
X66103500Y-67592000D03*
X66103500Y-70132000D03*
X66103500Y-72672000D03*
X66103500Y-75212000D03*
X66103500Y-77752000D03*
X66103500Y-80292000D03*
X66103500Y-82832000D03*
X66103500Y-85372000D03*
X66103500Y-87912000D03*
X66103500Y-90452000D03*
X66103500Y-92992000D03*
X50863500Y-92992000D03*
X50863500Y-90452000D03*
X50863500Y-87912000D03*
X50863500Y-85372000D03*
X50863500Y-82832000D03*
X50863500Y-80292000D03*
X50863500Y-77752000D03*
X50863500Y-75212000D03*
X50863500Y-72672000D03*
X50863500Y-70132000D03*
X50863500Y-67592000D03*
D12*
X50863500Y-65052000D03*
D13*
X139002000Y-71148000D03*
D14*
X139002000Y-76228000D03*
D13*
X163386000Y-85880000D03*
D14*
X163386000Y-90960000D03*
D13*
X116650000Y-71910000D03*
D14*
X116650000Y-76990000D03*
D13*
X125540000Y-93500000D03*
D14*
X125540000Y-98580000D03*
D13*
X103442000Y-92230000D03*
D14*
X103442000Y-97310000D03*
D13*
X94551500Y-71402000D03*
D14*
X94551500Y-76482000D03*
D13*
X90741500Y-114074000D03*
D14*
X90741500Y-119154000D03*
D13*
X81597500Y-93500000D03*
D14*
X81597500Y-98580000D03*
D13*
X72199500Y-71910000D03*
D14*
X72199500Y-76990000D03*
D15*
X115570000Y-113030000D03*
X121920000Y-110490000D03*
X110370000Y-91440000D03*
X116720000Y-88900000D03*
X88900000Y-91440000D03*
X95250000Y-88900000D03*
X173990000Y-81280000D03*
X180340000Y-78740000D03*
X124460000Y-71120000D03*
X130810000Y-68580000D03*
X133350000Y-91440000D03*
X139700000Y-88900000D03*
X101600000Y-71120000D03*
X107950000Y-68580000D03*
X146050000Y-71120000D03*
X152400000Y-68580000D03*
X80010000Y-71120000D03*
X86360000Y-68580000D03*
D16*
X94551500Y-76482000D02*
X93024200Y-76482000D01*
X72199500Y-76990000D02*
X92516200Y-76990000D01*
X92516200Y-76990000D02*
X93024200Y-76482000D01*
X71435900Y-76990000D02*
X72199500Y-76990000D01*
X116650000Y-76990000D02*
X115122700Y-76990000D01*
X94551500Y-76482000D02*
X114614700Y-76482000D01*
X114614700Y-76482000D02*
X115122700Y-76990000D01*
X71435900Y-76990000D02*
X70672200Y-76990000D01*
X70672200Y-76990000D02*
X68894200Y-75212000D01*
X68894200Y-75212000D02*
X66103500Y-75212000D01*
X72199500Y-71910000D02*
X73726800Y-71910000D01*
X80010000Y-71120000D02*
X74516800Y-71120000D01*
X74516800Y-71120000D02*
X73726800Y-71910000D01*
X81597500Y-93500000D02*
X83124800Y-93500000D01*
X88900000Y-91440000D02*
X85184800Y-91440000D01*
X85184800Y-91440000D02*
X83124800Y-93500000D01*
X103442000Y-97310000D02*
X101914700Y-97310000D01*
X81597500Y-98580000D02*
X100644700Y-98580000D01*
X100644700Y-98580000D02*
X101914700Y-97310000D01*
X90741500Y-114074000D02*
X92268800Y-114074000D01*
X115570000Y-113030000D02*
X93312800Y-113030000D01*
X93312800Y-113030000D02*
X92268800Y-114074000D01*
X94551500Y-71402000D02*
X96078800Y-71402000D01*
X101600000Y-71120000D02*
X96360800Y-71120000D01*
X96360800Y-71120000D02*
X96078800Y-71402000D01*
X121920000Y-110490000D02*
X106360800Y-94930800D01*
X106360800Y-94930800D02*
X101280800Y-94930800D01*
X101280800Y-94930800D02*
X95250000Y-88900000D01*
X139700000Y-88900000D02*
X116720000Y-88900000D01*
X125540000Y-93500000D02*
X127067300Y-93500000D01*
X133350000Y-91440000D02*
X129127300Y-91440000D01*
X129127300Y-91440000D02*
X127067300Y-93500000D01*
X116650000Y-71910000D02*
X118177300Y-71910000D01*
X124460000Y-71120000D02*
X118967300Y-71120000D01*
X118967300Y-71120000D02*
X118177300Y-71910000D01*
X130810000Y-68580000D02*
X130044600Y-68580000D01*
X130044600Y-68580000D02*
X118711400Y-79913200D01*
X118711400Y-79913200D02*
X76642300Y-79913200D01*
X76642300Y-79913200D02*
X66103500Y-90452000D01*
X152400000Y-68580000D02*
X130810000Y-68580000D01*
X139002000Y-76228000D02*
X139002000Y-77755300D01*
X125540000Y-98580000D02*
X129193900Y-98580000D01*
X129193900Y-98580000D02*
X136571700Y-91202200D01*
X136571700Y-91202200D02*
X139486600Y-91202200D01*
X139486600Y-91202200D02*
X141169100Y-89519700D01*
X141169100Y-89519700D02*
X141169100Y-79922400D01*
X141169100Y-79922400D02*
X139002000Y-77755300D01*
M02*
