G04 #@! TF.GenerationSoftware,KiCad,Pcbnew,5.1.7-a382d34a8~87~ubuntu20.04.1*
G04 #@! TF.CreationDate,2021-01-04T03:10:59+05:30*
G04 #@! TF.ProjectId,ai03-pcb-guide,61693033-2d70-4636-922d-67756964652e,rev?*
G04 #@! TF.SameCoordinates,Original*
G04 #@! TF.FileFunction,Legend,Top*
G04 #@! TF.FilePolarity,Positive*
%FSLAX46Y46*%
G04 Gerber Fmt 4.6, Leading zero omitted, Abs format (unit mm)*
G04 Created by KiCad (PCBNEW 5.1.7-a382d34a8~87~ubuntu20.04.1) date 2021-01-04 03:10:59*
%MOMM*%
%LPD*%
G01*
G04 APERTURE LIST*
%ADD10C,0.300000*%
%ADD11C,0.120000*%
%ADD12C,0.150000*%
%ADD13C,2.800000*%
%ADD14C,2.000000*%
%ADD15O,2.800000X2.800000*%
%ADD16C,3.450000*%
%ADD17C,4.400000*%
%ADD18C,2.100000*%
%ADD19C,2.600000*%
G04 APERTURE END LIST*
D10*
X52546589Y-126607142D02*
X52921589Y-123607142D01*
X53653732Y-125750000D01*
X54921589Y-123607142D01*
X54546589Y-126607142D01*
X57260875Y-126607142D02*
X57457303Y-125035714D01*
X57350160Y-124750000D01*
X57082303Y-124607142D01*
X56510875Y-124607142D01*
X56207303Y-124750000D01*
X57278732Y-126464285D02*
X56975160Y-126607142D01*
X56260875Y-126607142D01*
X55993017Y-126464285D01*
X55885875Y-126178571D01*
X55921589Y-125892857D01*
X56100160Y-125607142D01*
X56403732Y-125464285D01*
X57118017Y-125464285D01*
X57421589Y-125321428D01*
X59975160Y-126607142D02*
X60350160Y-123607142D01*
X59993017Y-126464285D02*
X59689446Y-126607142D01*
X59118017Y-126607142D01*
X58850160Y-126464285D01*
X58725160Y-126321428D01*
X58618017Y-126035714D01*
X58725160Y-125178571D01*
X58903732Y-124892857D01*
X59064446Y-124750000D01*
X59368017Y-124607142D01*
X59939446Y-124607142D01*
X60207303Y-124750000D01*
X62564446Y-126464285D02*
X62260875Y-126607142D01*
X61689446Y-126607142D01*
X61421589Y-126464285D01*
X61314446Y-126178571D01*
X61457303Y-125035714D01*
X61635875Y-124750000D01*
X61939446Y-124607142D01*
X62510875Y-124607142D01*
X62778732Y-124750000D01*
X62885875Y-125035714D01*
X62850160Y-125321428D01*
X61385875Y-125607142D01*
X67457303Y-125035714D02*
X67868017Y-125178571D01*
X67993017Y-125321428D01*
X68100160Y-125607142D01*
X68046589Y-126035714D01*
X67868017Y-126321428D01*
X67707303Y-126464285D01*
X67403732Y-126607142D01*
X66260875Y-126607142D01*
X66635875Y-123607142D01*
X67635875Y-123607142D01*
X67903732Y-123750000D01*
X68028732Y-123892857D01*
X68135875Y-124178571D01*
X68100160Y-124464285D01*
X67921589Y-124750000D01*
X67760875Y-124892857D01*
X67457303Y-125035714D01*
X66457303Y-125035714D01*
X69225160Y-124607142D02*
X69689446Y-126607142D01*
X70653732Y-124607142D02*
X69689446Y-126607142D01*
X69314446Y-127321428D01*
X69153732Y-127464285D01*
X68850160Y-127607142D01*
X73832303Y-126607142D02*
X74207303Y-123607142D01*
X74921589Y-123607142D01*
X75332303Y-123750000D01*
X75582303Y-124035714D01*
X75689446Y-124321428D01*
X75760875Y-124892857D01*
X75707303Y-125321428D01*
X75493017Y-125892857D01*
X75314446Y-126178571D01*
X74993017Y-126464285D01*
X74546589Y-126607142D01*
X73832303Y-126607142D01*
X76832303Y-126607142D02*
X77082303Y-124607142D01*
X77010875Y-125178571D02*
X77189446Y-124892857D01*
X77350160Y-124750000D01*
X77653732Y-124607142D01*
X77939446Y-124607142D01*
X79975160Y-126607142D02*
X80171589Y-125035714D01*
X80064446Y-124750000D01*
X79796589Y-124607142D01*
X79225160Y-124607142D01*
X78921589Y-124750000D01*
X79993017Y-126464285D02*
X79689446Y-126607142D01*
X78975160Y-126607142D01*
X78707303Y-126464285D01*
X78600160Y-126178571D01*
X78635875Y-125892857D01*
X78814446Y-125607142D01*
X79118017Y-125464285D01*
X79832303Y-125464285D01*
X80135875Y-125321428D01*
X82939446Y-124607142D02*
X82635875Y-127035714D01*
X82457303Y-127321428D01*
X82296589Y-127464285D01*
X81993017Y-127607142D01*
X81564446Y-127607142D01*
X81296589Y-127464285D01*
X82707303Y-126464285D02*
X82403732Y-126607142D01*
X81832303Y-126607142D01*
X81564446Y-126464285D01*
X81439446Y-126321428D01*
X81332303Y-126035714D01*
X81439446Y-125178571D01*
X81618017Y-124892857D01*
X81778732Y-124750000D01*
X82082303Y-124607142D01*
X82653732Y-124607142D01*
X82921589Y-124750000D01*
X85653732Y-124607142D02*
X85403732Y-126607142D01*
X84368017Y-124607142D02*
X84171589Y-126178571D01*
X84278732Y-126464285D01*
X84546589Y-126607142D01*
X84975160Y-126607142D01*
X85278732Y-126464285D01*
X85439446Y-126321428D01*
X86796589Y-124607142D02*
X87260875Y-126607142D01*
X88225160Y-124607142D01*
X90278732Y-126464285D02*
X89975160Y-126607142D01*
X89403732Y-126607142D01*
X89135875Y-126464285D01*
X89028732Y-126178571D01*
X89171589Y-125035714D01*
X89350160Y-124750000D01*
X89653732Y-124607142D01*
X90225160Y-124607142D01*
X90493017Y-124750000D01*
X90600160Y-125035714D01*
X90564446Y-125321428D01*
X89100160Y-125607142D01*
D11*
X192163500Y-66198000D02*
X188963500Y-66198000D01*
X188963500Y-63398000D02*
X192163500Y-63398000D01*
X192163500Y-63398000D02*
X192163500Y-66198000D01*
X188963500Y-66198000D02*
X188963500Y-63398000D01*
X193179500Y-127666000D02*
X189979500Y-127666000D01*
X189979500Y-124866000D02*
X193179500Y-124866000D01*
X193179500Y-124866000D02*
X193179500Y-127666000D01*
X189979500Y-127666000D02*
X189979500Y-124866000D01*
X51447500Y-126396000D02*
X48247500Y-126396000D01*
X48247500Y-123596000D02*
X51447500Y-123596000D01*
X51447500Y-123596000D02*
X51447500Y-126396000D01*
X48247500Y-126396000D02*
X48247500Y-123596000D01*
X47637500Y-65944000D02*
X44437500Y-65944000D01*
X44437500Y-63144000D02*
X47637500Y-63144000D01*
X47637500Y-63144000D02*
X47637500Y-65944000D01*
X44437500Y-65944000D02*
X44437500Y-63144000D01*
D12*
X49593500Y-63782000D02*
X49593500Y-94262000D01*
X49593500Y-63782000D02*
X54673500Y-63782000D01*
X54673500Y-63782000D02*
X54673500Y-61242000D01*
X54673500Y-61242000D02*
X62293500Y-61242000D01*
X62293500Y-61242000D02*
X62293500Y-63782000D01*
X62293500Y-63782000D02*
X67373500Y-63782000D01*
X67373500Y-63782000D02*
X67373500Y-94262000D01*
X67373500Y-94262000D02*
X49593500Y-94262000D01*
D11*
X140922000Y-76228000D02*
G75*
G03*
X140922000Y-76228000I-1920000J0D01*
G01*
X139002000Y-74308000D02*
X139002000Y-72648000D01*
X165306000Y-90960000D02*
G75*
G03*
X165306000Y-90960000I-1920000J0D01*
G01*
X163386000Y-89040000D02*
X163386000Y-87380000D01*
X118570000Y-76990000D02*
G75*
G03*
X118570000Y-76990000I-1920000J0D01*
G01*
X116650000Y-75070000D02*
X116650000Y-73410000D01*
X127460000Y-98580000D02*
G75*
G03*
X127460000Y-98580000I-1920000J0D01*
G01*
X125540000Y-96660000D02*
X125540000Y-95000000D01*
X105362000Y-97310000D02*
G75*
G03*
X105362000Y-97310000I-1920000J0D01*
G01*
X103442000Y-95390000D02*
X103442000Y-93730000D01*
X96471500Y-76482000D02*
G75*
G03*
X96471500Y-76482000I-1920000J0D01*
G01*
X94551500Y-74562000D02*
X94551500Y-72902000D01*
X92661500Y-119154000D02*
G75*
G03*
X92661500Y-119154000I-1920000J0D01*
G01*
X90741500Y-117234000D02*
X90741500Y-115574000D01*
X83517500Y-98580000D02*
G75*
G03*
X83517500Y-98580000I-1920000J0D01*
G01*
X81597500Y-96660000D02*
X81597500Y-95000000D01*
X74119500Y-76990000D02*
G75*
G03*
X74119500Y-76990000I-1920000J0D01*
G01*
X72199500Y-75070000D02*
X72199500Y-73410000D01*
X112395000Y-122555000D02*
X112395000Y-108585000D01*
X126365000Y-122555000D02*
X112395000Y-122555000D01*
X126365000Y-108585000D02*
X126365000Y-122555000D01*
X112395000Y-108585000D02*
X126365000Y-108585000D01*
X107195000Y-100965000D02*
X107195000Y-86995000D01*
X121165000Y-100965000D02*
X107195000Y-100965000D01*
X121165000Y-86995000D02*
X121165000Y-100965000D01*
X107195000Y-86995000D02*
X121165000Y-86995000D01*
X85725000Y-100965000D02*
X85725000Y-86995000D01*
X99695000Y-100965000D02*
X85725000Y-100965000D01*
X99695000Y-86995000D02*
X99695000Y-100965000D01*
X85725000Y-86995000D02*
X99695000Y-86995000D01*
X170815000Y-90805000D02*
X170815000Y-76835000D01*
X184785000Y-90805000D02*
X170815000Y-90805000D01*
X184785000Y-76835000D02*
X184785000Y-90805000D01*
X170815000Y-76835000D02*
X184785000Y-76835000D01*
X121285000Y-80645000D02*
X121285000Y-66675000D01*
X135255000Y-80645000D02*
X121285000Y-80645000D01*
X135255000Y-66675000D02*
X135255000Y-80645000D01*
X121285000Y-66675000D02*
X135255000Y-66675000D01*
X130175000Y-100965000D02*
X130175000Y-86995000D01*
X144145000Y-100965000D02*
X130175000Y-100965000D01*
X144145000Y-86995000D02*
X144145000Y-100965000D01*
X130175000Y-86995000D02*
X144145000Y-86995000D01*
X98425000Y-80645000D02*
X98425000Y-66675000D01*
X112395000Y-80645000D02*
X98425000Y-80645000D01*
X112395000Y-66675000D02*
X112395000Y-80645000D01*
X98425000Y-66675000D02*
X112395000Y-66675000D01*
X142875000Y-80645000D02*
X142875000Y-66675000D01*
X156845000Y-80645000D02*
X142875000Y-80645000D01*
X156845000Y-66675000D02*
X156845000Y-80645000D01*
X142875000Y-66675000D02*
X156845000Y-66675000D01*
X76835000Y-80645000D02*
X76835000Y-66675000D01*
X90805000Y-80645000D02*
X76835000Y-80645000D01*
X90805000Y-66675000D02*
X90805000Y-80645000D01*
X76835000Y-66675000D02*
X90805000Y-66675000D01*
D12*
X136534380Y-74426095D02*
X135534380Y-74426095D01*
X135534380Y-74188000D01*
X135582000Y-74045142D01*
X135677238Y-73949904D01*
X135772476Y-73902285D01*
X135962952Y-73854666D01*
X136105809Y-73854666D01*
X136296285Y-73902285D01*
X136391523Y-73949904D01*
X136486761Y-74045142D01*
X136534380Y-74188000D01*
X136534380Y-74426095D01*
X136534380Y-73378476D02*
X136534380Y-73188000D01*
X136486761Y-73092761D01*
X136439142Y-73045142D01*
X136296285Y-72949904D01*
X136105809Y-72902285D01*
X135724857Y-72902285D01*
X135629619Y-72949904D01*
X135582000Y-72997523D01*
X135534380Y-73092761D01*
X135534380Y-73283238D01*
X135582000Y-73378476D01*
X135629619Y-73426095D01*
X135724857Y-73473714D01*
X135962952Y-73473714D01*
X136058190Y-73426095D01*
X136105809Y-73378476D01*
X136153428Y-73283238D01*
X136153428Y-73092761D01*
X136105809Y-72997523D01*
X136058190Y-72949904D01*
X135962952Y-72902285D01*
X140368666Y-73286095D02*
X140368666Y-72809904D01*
X140654380Y-73381333D02*
X139654380Y-73048000D01*
X140654380Y-72714666D01*
X160918380Y-89158095D02*
X159918380Y-89158095D01*
X159918380Y-88920000D01*
X159966000Y-88777142D01*
X160061238Y-88681904D01*
X160156476Y-88634285D01*
X160346952Y-88586666D01*
X160489809Y-88586666D01*
X160680285Y-88634285D01*
X160775523Y-88681904D01*
X160870761Y-88777142D01*
X160918380Y-88920000D01*
X160918380Y-89158095D01*
X160346952Y-88015238D02*
X160299333Y-88110476D01*
X160251714Y-88158095D01*
X160156476Y-88205714D01*
X160108857Y-88205714D01*
X160013619Y-88158095D01*
X159966000Y-88110476D01*
X159918380Y-88015238D01*
X159918380Y-87824761D01*
X159966000Y-87729523D01*
X160013619Y-87681904D01*
X160108857Y-87634285D01*
X160156476Y-87634285D01*
X160251714Y-87681904D01*
X160299333Y-87729523D01*
X160346952Y-87824761D01*
X160346952Y-88015238D01*
X160394571Y-88110476D01*
X160442190Y-88158095D01*
X160537428Y-88205714D01*
X160727904Y-88205714D01*
X160823142Y-88158095D01*
X160870761Y-88110476D01*
X160918380Y-88015238D01*
X160918380Y-87824761D01*
X160870761Y-87729523D01*
X160823142Y-87681904D01*
X160727904Y-87634285D01*
X160537428Y-87634285D01*
X160442190Y-87681904D01*
X160394571Y-87729523D01*
X160346952Y-87824761D01*
X164752666Y-88018095D02*
X164752666Y-87541904D01*
X165038380Y-88113333D02*
X164038380Y-87780000D01*
X165038380Y-87446666D01*
X114182380Y-75188095D02*
X113182380Y-75188095D01*
X113182380Y-74950000D01*
X113230000Y-74807142D01*
X113325238Y-74711904D01*
X113420476Y-74664285D01*
X113610952Y-74616666D01*
X113753809Y-74616666D01*
X113944285Y-74664285D01*
X114039523Y-74711904D01*
X114134761Y-74807142D01*
X114182380Y-74950000D01*
X114182380Y-75188095D01*
X113182380Y-74283333D02*
X113182380Y-73616666D01*
X114182380Y-74045238D01*
X118016666Y-74048095D02*
X118016666Y-73571904D01*
X118302380Y-74143333D02*
X117302380Y-73810000D01*
X118302380Y-73476666D01*
X123072380Y-96778095D02*
X122072380Y-96778095D01*
X122072380Y-96540000D01*
X122120000Y-96397142D01*
X122215238Y-96301904D01*
X122310476Y-96254285D01*
X122500952Y-96206666D01*
X122643809Y-96206666D01*
X122834285Y-96254285D01*
X122929523Y-96301904D01*
X123024761Y-96397142D01*
X123072380Y-96540000D01*
X123072380Y-96778095D01*
X122072380Y-95349523D02*
X122072380Y-95540000D01*
X122120000Y-95635238D01*
X122167619Y-95682857D01*
X122310476Y-95778095D01*
X122500952Y-95825714D01*
X122881904Y-95825714D01*
X122977142Y-95778095D01*
X123024761Y-95730476D01*
X123072380Y-95635238D01*
X123072380Y-95444761D01*
X123024761Y-95349523D01*
X122977142Y-95301904D01*
X122881904Y-95254285D01*
X122643809Y-95254285D01*
X122548571Y-95301904D01*
X122500952Y-95349523D01*
X122453333Y-95444761D01*
X122453333Y-95635238D01*
X122500952Y-95730476D01*
X122548571Y-95778095D01*
X122643809Y-95825714D01*
X126906666Y-95638095D02*
X126906666Y-95161904D01*
X127192380Y-95733333D02*
X126192380Y-95400000D01*
X127192380Y-95066666D01*
X100974380Y-95508095D02*
X99974380Y-95508095D01*
X99974380Y-95270000D01*
X100022000Y-95127142D01*
X100117238Y-95031904D01*
X100212476Y-94984285D01*
X100402952Y-94936666D01*
X100545809Y-94936666D01*
X100736285Y-94984285D01*
X100831523Y-95031904D01*
X100926761Y-95127142D01*
X100974380Y-95270000D01*
X100974380Y-95508095D01*
X99974380Y-94031904D02*
X99974380Y-94508095D01*
X100450571Y-94555714D01*
X100402952Y-94508095D01*
X100355333Y-94412857D01*
X100355333Y-94174761D01*
X100402952Y-94079523D01*
X100450571Y-94031904D01*
X100545809Y-93984285D01*
X100783904Y-93984285D01*
X100879142Y-94031904D01*
X100926761Y-94079523D01*
X100974380Y-94174761D01*
X100974380Y-94412857D01*
X100926761Y-94508095D01*
X100879142Y-94555714D01*
X104808666Y-94368095D02*
X104808666Y-93891904D01*
X105094380Y-94463333D02*
X104094380Y-94130000D01*
X105094380Y-93796666D01*
X92083880Y-74680095D02*
X91083880Y-74680095D01*
X91083880Y-74442000D01*
X91131500Y-74299142D01*
X91226738Y-74203904D01*
X91321976Y-74156285D01*
X91512452Y-74108666D01*
X91655309Y-74108666D01*
X91845785Y-74156285D01*
X91941023Y-74203904D01*
X92036261Y-74299142D01*
X92083880Y-74442000D01*
X92083880Y-74680095D01*
X91417214Y-73251523D02*
X92083880Y-73251523D01*
X91036261Y-73489619D02*
X91750547Y-73727714D01*
X91750547Y-73108666D01*
X95918166Y-73540095D02*
X95918166Y-73063904D01*
X96203880Y-73635333D02*
X95203880Y-73302000D01*
X96203880Y-72968666D01*
X88273880Y-117352095D02*
X87273880Y-117352095D01*
X87273880Y-117114000D01*
X87321500Y-116971142D01*
X87416738Y-116875904D01*
X87511976Y-116828285D01*
X87702452Y-116780666D01*
X87845309Y-116780666D01*
X88035785Y-116828285D01*
X88131023Y-116875904D01*
X88226261Y-116971142D01*
X88273880Y-117114000D01*
X88273880Y-117352095D01*
X87273880Y-116447333D02*
X87273880Y-115828285D01*
X87654833Y-116161619D01*
X87654833Y-116018761D01*
X87702452Y-115923523D01*
X87750071Y-115875904D01*
X87845309Y-115828285D01*
X88083404Y-115828285D01*
X88178642Y-115875904D01*
X88226261Y-115923523D01*
X88273880Y-116018761D01*
X88273880Y-116304476D01*
X88226261Y-116399714D01*
X88178642Y-116447333D01*
X92108166Y-116212095D02*
X92108166Y-115735904D01*
X92393880Y-116307333D02*
X91393880Y-115974000D01*
X92393880Y-115640666D01*
X79129880Y-96778095D02*
X78129880Y-96778095D01*
X78129880Y-96540000D01*
X78177500Y-96397142D01*
X78272738Y-96301904D01*
X78367976Y-96254285D01*
X78558452Y-96206666D01*
X78701309Y-96206666D01*
X78891785Y-96254285D01*
X78987023Y-96301904D01*
X79082261Y-96397142D01*
X79129880Y-96540000D01*
X79129880Y-96778095D01*
X78225119Y-95825714D02*
X78177500Y-95778095D01*
X78129880Y-95682857D01*
X78129880Y-95444761D01*
X78177500Y-95349523D01*
X78225119Y-95301904D01*
X78320357Y-95254285D01*
X78415595Y-95254285D01*
X78558452Y-95301904D01*
X79129880Y-95873333D01*
X79129880Y-95254285D01*
X82964166Y-95638095D02*
X82964166Y-95161904D01*
X83249880Y-95733333D02*
X82249880Y-95400000D01*
X83249880Y-95066666D01*
X69731880Y-75188095D02*
X68731880Y-75188095D01*
X68731880Y-74950000D01*
X68779500Y-74807142D01*
X68874738Y-74711904D01*
X68969976Y-74664285D01*
X69160452Y-74616666D01*
X69303309Y-74616666D01*
X69493785Y-74664285D01*
X69589023Y-74711904D01*
X69684261Y-74807142D01*
X69731880Y-74950000D01*
X69731880Y-75188095D01*
X69731880Y-73664285D02*
X69731880Y-74235714D01*
X69731880Y-73950000D02*
X68731880Y-73950000D01*
X68874738Y-74045238D01*
X68969976Y-74140476D01*
X69017595Y-74235714D01*
X73566166Y-74048095D02*
X73566166Y-73571904D01*
X73851880Y-74143333D02*
X72851880Y-73810000D01*
X73851880Y-73476666D01*
X118094285Y-108148380D02*
X118094285Y-107148380D01*
X118427619Y-107862666D01*
X118760952Y-107148380D01*
X118760952Y-108148380D01*
X119141904Y-107148380D02*
X119808571Y-108148380D01*
X119808571Y-107148380D02*
X119141904Y-108148380D01*
X120237142Y-108148380D02*
X120427619Y-108148380D01*
X120522857Y-108100761D01*
X120570476Y-108053142D01*
X120665714Y-107910285D01*
X120713333Y-107719809D01*
X120713333Y-107338857D01*
X120665714Y-107243619D01*
X120618095Y-107196000D01*
X120522857Y-107148380D01*
X120332380Y-107148380D01*
X120237142Y-107196000D01*
X120189523Y-107243619D01*
X120141904Y-107338857D01*
X120141904Y-107576952D01*
X120189523Y-107672190D01*
X120237142Y-107719809D01*
X120332380Y-107767428D01*
X120522857Y-107767428D01*
X120618095Y-107719809D01*
X120665714Y-107672190D01*
X120713333Y-107576952D01*
X112894285Y-86558380D02*
X112894285Y-85558380D01*
X113227619Y-86272666D01*
X113560952Y-85558380D01*
X113560952Y-86558380D01*
X113941904Y-85558380D02*
X114608571Y-86558380D01*
X114608571Y-85558380D02*
X113941904Y-86558380D01*
X115465714Y-85558380D02*
X114989523Y-85558380D01*
X114941904Y-86034571D01*
X114989523Y-85986952D01*
X115084761Y-85939333D01*
X115322857Y-85939333D01*
X115418095Y-85986952D01*
X115465714Y-86034571D01*
X115513333Y-86129809D01*
X115513333Y-86367904D01*
X115465714Y-86463142D01*
X115418095Y-86510761D01*
X115322857Y-86558380D01*
X115084761Y-86558380D01*
X114989523Y-86510761D01*
X114941904Y-86463142D01*
X91424285Y-86558380D02*
X91424285Y-85558380D01*
X91757619Y-86272666D01*
X92090952Y-85558380D01*
X92090952Y-86558380D01*
X92471904Y-85558380D02*
X93138571Y-86558380D01*
X93138571Y-85558380D02*
X92471904Y-86558380D01*
X93471904Y-85653619D02*
X93519523Y-85606000D01*
X93614761Y-85558380D01*
X93852857Y-85558380D01*
X93948095Y-85606000D01*
X93995714Y-85653619D01*
X94043333Y-85748857D01*
X94043333Y-85844095D01*
X93995714Y-85986952D01*
X93424285Y-86558380D01*
X94043333Y-86558380D01*
X176514285Y-76398380D02*
X176514285Y-75398380D01*
X176847619Y-76112666D01*
X177180952Y-75398380D01*
X177180952Y-76398380D01*
X177561904Y-75398380D02*
X178228571Y-76398380D01*
X178228571Y-75398380D02*
X177561904Y-76398380D01*
X178752380Y-75826952D02*
X178657142Y-75779333D01*
X178609523Y-75731714D01*
X178561904Y-75636476D01*
X178561904Y-75588857D01*
X178609523Y-75493619D01*
X178657142Y-75446000D01*
X178752380Y-75398380D01*
X178942857Y-75398380D01*
X179038095Y-75446000D01*
X179085714Y-75493619D01*
X179133333Y-75588857D01*
X179133333Y-75636476D01*
X179085714Y-75731714D01*
X179038095Y-75779333D01*
X178942857Y-75826952D01*
X178752380Y-75826952D01*
X178657142Y-75874571D01*
X178609523Y-75922190D01*
X178561904Y-76017428D01*
X178561904Y-76207904D01*
X178609523Y-76303142D01*
X178657142Y-76350761D01*
X178752380Y-76398380D01*
X178942857Y-76398380D01*
X179038095Y-76350761D01*
X179085714Y-76303142D01*
X179133333Y-76207904D01*
X179133333Y-76017428D01*
X179085714Y-75922190D01*
X179038095Y-75874571D01*
X178942857Y-75826952D01*
X126984285Y-66238380D02*
X126984285Y-65238380D01*
X127317619Y-65952666D01*
X127650952Y-65238380D01*
X127650952Y-66238380D01*
X128031904Y-65238380D02*
X128698571Y-66238380D01*
X128698571Y-65238380D02*
X128031904Y-66238380D01*
X128984285Y-65238380D02*
X129650952Y-65238380D01*
X129222380Y-66238380D01*
X135874285Y-86558380D02*
X135874285Y-85558380D01*
X136207619Y-86272666D01*
X136540952Y-85558380D01*
X136540952Y-86558380D01*
X136921904Y-85558380D02*
X137588571Y-86558380D01*
X137588571Y-85558380D02*
X136921904Y-86558380D01*
X138398095Y-85558380D02*
X138207619Y-85558380D01*
X138112380Y-85606000D01*
X138064761Y-85653619D01*
X137969523Y-85796476D01*
X137921904Y-85986952D01*
X137921904Y-86367904D01*
X137969523Y-86463142D01*
X138017142Y-86510761D01*
X138112380Y-86558380D01*
X138302857Y-86558380D01*
X138398095Y-86510761D01*
X138445714Y-86463142D01*
X138493333Y-86367904D01*
X138493333Y-86129809D01*
X138445714Y-86034571D01*
X138398095Y-85986952D01*
X138302857Y-85939333D01*
X138112380Y-85939333D01*
X138017142Y-85986952D01*
X137969523Y-86034571D01*
X137921904Y-86129809D01*
X104124285Y-66238380D02*
X104124285Y-65238380D01*
X104457619Y-65952666D01*
X104790952Y-65238380D01*
X104790952Y-66238380D01*
X105171904Y-65238380D02*
X105838571Y-66238380D01*
X105838571Y-65238380D02*
X105171904Y-66238380D01*
X106648095Y-65571714D02*
X106648095Y-66238380D01*
X106410000Y-65190761D02*
X106171904Y-65905047D01*
X106790952Y-65905047D01*
X148574285Y-66238380D02*
X148574285Y-65238380D01*
X148907619Y-65952666D01*
X149240952Y-65238380D01*
X149240952Y-66238380D01*
X149621904Y-65238380D02*
X150288571Y-66238380D01*
X150288571Y-65238380D02*
X149621904Y-66238380D01*
X150574285Y-65238380D02*
X151193333Y-65238380D01*
X150860000Y-65619333D01*
X151002857Y-65619333D01*
X151098095Y-65666952D01*
X151145714Y-65714571D01*
X151193333Y-65809809D01*
X151193333Y-66047904D01*
X151145714Y-66143142D01*
X151098095Y-66190761D01*
X151002857Y-66238380D01*
X150717142Y-66238380D01*
X150621904Y-66190761D01*
X150574285Y-66143142D01*
X82534285Y-66238380D02*
X82534285Y-65238380D01*
X82867619Y-65952666D01*
X83200952Y-65238380D01*
X83200952Y-66238380D01*
X83581904Y-65238380D02*
X84248571Y-66238380D01*
X84248571Y-65238380D02*
X83581904Y-66238380D01*
X85153333Y-66238380D02*
X84581904Y-66238380D01*
X84867619Y-66238380D02*
X84867619Y-65238380D01*
X84772380Y-65381238D01*
X84677142Y-65476476D01*
X84581904Y-65524095D01*
%LPC*%
D13*
X190563500Y-64798000D03*
X191579500Y-126266000D03*
X49847500Y-124996000D03*
X46037500Y-64544000D03*
D14*
X66103500Y-65052000D03*
X66103500Y-67592000D03*
X66103500Y-70132000D03*
X66103500Y-72672000D03*
X66103500Y-75212000D03*
X66103500Y-77752000D03*
X66103500Y-80292000D03*
X66103500Y-82832000D03*
X66103500Y-85372000D03*
X66103500Y-87912000D03*
X66103500Y-90452000D03*
X66103500Y-92992000D03*
X50863500Y-92992000D03*
X50863500Y-90452000D03*
X50863500Y-87912000D03*
X50863500Y-85372000D03*
X50863500Y-82832000D03*
X50863500Y-80292000D03*
X50863500Y-77752000D03*
X50863500Y-75212000D03*
X50863500Y-72672000D03*
X50863500Y-70132000D03*
X50863500Y-67592000D03*
G36*
G01*
X50063500Y-64052000D02*
X51663500Y-64052000D01*
G75*
G02*
X51863500Y-64252000I0J-200000D01*
G01*
X51863500Y-65852000D01*
G75*
G02*
X51663500Y-66052000I-200000J0D01*
G01*
X50063500Y-66052000D01*
G75*
G02*
X49863500Y-65852000I0J200000D01*
G01*
X49863500Y-64252000D01*
G75*
G02*
X50063500Y-64052000I200000J0D01*
G01*
G37*
D15*
X139002000Y-71148000D03*
G36*
G01*
X140202000Y-77628000D02*
X137802000Y-77628000D01*
G75*
G02*
X137602000Y-77428000I0J200000D01*
G01*
X137602000Y-75028000D01*
G75*
G02*
X137802000Y-74828000I200000J0D01*
G01*
X140202000Y-74828000D01*
G75*
G02*
X140402000Y-75028000I0J-200000D01*
G01*
X140402000Y-77428000D01*
G75*
G02*
X140202000Y-77628000I-200000J0D01*
G01*
G37*
X163386000Y-85880000D03*
G36*
G01*
X164586000Y-92360000D02*
X162186000Y-92360000D01*
G75*
G02*
X161986000Y-92160000I0J200000D01*
G01*
X161986000Y-89760000D01*
G75*
G02*
X162186000Y-89560000I200000J0D01*
G01*
X164586000Y-89560000D01*
G75*
G02*
X164786000Y-89760000I0J-200000D01*
G01*
X164786000Y-92160000D01*
G75*
G02*
X164586000Y-92360000I-200000J0D01*
G01*
G37*
X116650000Y-71910000D03*
G36*
G01*
X117850000Y-78390000D02*
X115450000Y-78390000D01*
G75*
G02*
X115250000Y-78190000I0J200000D01*
G01*
X115250000Y-75790000D01*
G75*
G02*
X115450000Y-75590000I200000J0D01*
G01*
X117850000Y-75590000D01*
G75*
G02*
X118050000Y-75790000I0J-200000D01*
G01*
X118050000Y-78190000D01*
G75*
G02*
X117850000Y-78390000I-200000J0D01*
G01*
G37*
X125540000Y-93500000D03*
G36*
G01*
X126740000Y-99980000D02*
X124340000Y-99980000D01*
G75*
G02*
X124140000Y-99780000I0J200000D01*
G01*
X124140000Y-97380000D01*
G75*
G02*
X124340000Y-97180000I200000J0D01*
G01*
X126740000Y-97180000D01*
G75*
G02*
X126940000Y-97380000I0J-200000D01*
G01*
X126940000Y-99780000D01*
G75*
G02*
X126740000Y-99980000I-200000J0D01*
G01*
G37*
X103442000Y-92230000D03*
G36*
G01*
X104642000Y-98710000D02*
X102242000Y-98710000D01*
G75*
G02*
X102042000Y-98510000I0J200000D01*
G01*
X102042000Y-96110000D01*
G75*
G02*
X102242000Y-95910000I200000J0D01*
G01*
X104642000Y-95910000D01*
G75*
G02*
X104842000Y-96110000I0J-200000D01*
G01*
X104842000Y-98510000D01*
G75*
G02*
X104642000Y-98710000I-200000J0D01*
G01*
G37*
X94551500Y-71402000D03*
G36*
G01*
X95751500Y-77882000D02*
X93351500Y-77882000D01*
G75*
G02*
X93151500Y-77682000I0J200000D01*
G01*
X93151500Y-75282000D01*
G75*
G02*
X93351500Y-75082000I200000J0D01*
G01*
X95751500Y-75082000D01*
G75*
G02*
X95951500Y-75282000I0J-200000D01*
G01*
X95951500Y-77682000D01*
G75*
G02*
X95751500Y-77882000I-200000J0D01*
G01*
G37*
X90741500Y-114074000D03*
G36*
G01*
X91941500Y-120554000D02*
X89541500Y-120554000D01*
G75*
G02*
X89341500Y-120354000I0J200000D01*
G01*
X89341500Y-117954000D01*
G75*
G02*
X89541500Y-117754000I200000J0D01*
G01*
X91941500Y-117754000D01*
G75*
G02*
X92141500Y-117954000I0J-200000D01*
G01*
X92141500Y-120354000D01*
G75*
G02*
X91941500Y-120554000I-200000J0D01*
G01*
G37*
X81597500Y-93500000D03*
G36*
G01*
X82797500Y-99980000D02*
X80397500Y-99980000D01*
G75*
G02*
X80197500Y-99780000I0J200000D01*
G01*
X80197500Y-97380000D01*
G75*
G02*
X80397500Y-97180000I200000J0D01*
G01*
X82797500Y-97180000D01*
G75*
G02*
X82997500Y-97380000I0J-200000D01*
G01*
X82997500Y-99780000D01*
G75*
G02*
X82797500Y-99980000I-200000J0D01*
G01*
G37*
X72199500Y-71910000D03*
G36*
G01*
X73399500Y-78390000D02*
X70999500Y-78390000D01*
G75*
G02*
X70799500Y-78190000I0J200000D01*
G01*
X70799500Y-75790000D01*
G75*
G02*
X70999500Y-75590000I200000J0D01*
G01*
X73399500Y-75590000D01*
G75*
G02*
X73599500Y-75790000I0J-200000D01*
G01*
X73599500Y-78190000D01*
G75*
G02*
X73399500Y-78390000I-200000J0D01*
G01*
G37*
D16*
X131280000Y-108570000D03*
X107480000Y-108570000D03*
D17*
X107480000Y-123810000D03*
X131280000Y-123810000D03*
D18*
X124460000Y-115570000D03*
X114300000Y-115570000D03*
D17*
X119380000Y-115570000D03*
D19*
X115570000Y-113030000D03*
X121920000Y-110490000D03*
D18*
X119260000Y-93980000D03*
X109100000Y-93980000D03*
D17*
X114180000Y-93980000D03*
D19*
X110370000Y-91440000D03*
X116720000Y-88900000D03*
D18*
X97790000Y-93980000D03*
X87630000Y-93980000D03*
D17*
X92710000Y-93980000D03*
D19*
X88900000Y-91440000D03*
X95250000Y-88900000D03*
D16*
X170800000Y-71920000D03*
X170800000Y-95720000D03*
D17*
X186040000Y-95720000D03*
X186040000Y-71920000D03*
D18*
X182880000Y-83820000D03*
X172720000Y-83820000D03*
D17*
X177800000Y-83820000D03*
D19*
X173990000Y-81280000D03*
X180340000Y-78740000D03*
D18*
X133350000Y-73660000D03*
X123190000Y-73660000D03*
D17*
X128270000Y-73660000D03*
D19*
X124460000Y-71120000D03*
X130810000Y-68580000D03*
D18*
X142240000Y-93980000D03*
X132080000Y-93980000D03*
D17*
X137160000Y-93980000D03*
D19*
X133350000Y-91440000D03*
X139700000Y-88900000D03*
D18*
X110490000Y-73660000D03*
X100330000Y-73660000D03*
D17*
X105410000Y-73660000D03*
D19*
X101600000Y-71120000D03*
X107950000Y-68580000D03*
D18*
X154940000Y-73660000D03*
X144780000Y-73660000D03*
D17*
X149860000Y-73660000D03*
D19*
X146050000Y-71120000D03*
X152400000Y-68580000D03*
D18*
X88900000Y-73660000D03*
X78740000Y-73660000D03*
D17*
X83820000Y-73660000D03*
D19*
X80010000Y-71120000D03*
X86360000Y-68580000D03*
M02*
