M48
; DRILL file {KiCad 5.1.7-a382d34a8~87~ubuntu20.04.1} date Mon Jan  4 03:11:45 2021
; FORMAT={-:-/ absolute / inch / decimal}
; #@! TF.CreationDate,2021-01-04T03:11:45+05:30
; #@! TF.GenerationSoftware,Kicad,Pcbnew,5.1.7-a382d34a8~87~ubuntu20.04.1
FMAT,2
INCH
T1C0.0433
T2C0.0472
T3C0.0591
T4C0.0669
T5C0.1201
T6C0.1575
%
G90
G05
T1
X2.0025Y-2.5611
X2.0025Y-2.6611
X2.0025Y-2.7611
X2.0025Y-2.8611
X2.0025Y-2.9611
X2.0025Y-3.0611
X2.0025Y-3.1611
X2.0025Y-3.2611
X2.0025Y-3.3611
X2.0025Y-3.4611
X2.0025Y-3.5611
X2.0025Y-3.6611
X2.6025Y-2.5611
X2.6025Y-2.6611
X2.6025Y-2.7611
X2.6025Y-2.8611
X2.6025Y-2.9611
X2.6025Y-3.0611
X2.6025Y-3.1611
X2.6025Y-3.2611
X2.6025Y-3.3611
X2.6025Y-3.4611
X2.6025Y-3.5611
X2.6025Y-3.6611
T2
X5.4725Y-2.8011
X5.4725Y-3.0011
X1.8125Y-2.5411
X3.2125Y-3.6811
X3.2125Y-3.8811
X1.9625Y-4.9211
X4.5925Y-2.8311
X4.5925Y-3.0311
X7.5425Y-4.9711
X4.9425Y-3.6811
X4.9425Y-3.8811
X7.5025Y-2.5511
X4.0725Y-3.6311
X4.0725Y-3.8311
X2.8425Y-2.8311
X2.8425Y-3.0311
X6.4325Y-3.3811
X6.4325Y-3.5811
X3.7225Y-2.8111
X3.7225Y-3.0111
X3.5725Y-4.4911
X3.5725Y-4.6911
T3
X5.25Y-3.6
X5.5Y-3.5
X4.3453Y-3.6
X4.5953Y-3.5
X4.0Y-2.8
X4.25Y-2.7
X3.5Y-3.6
X3.75Y-3.5
X4.55Y-4.45
X4.8Y-4.35
X3.15Y-2.8
X3.4Y-2.7
X6.85Y-3.2
X7.1Y-3.1
X5.75Y-2.8
X6.0Y-2.7
X4.9Y-2.8
X5.15Y-2.7
T4
X5.7Y-2.9
X6.1Y-2.9
X4.85Y-2.9
X5.25Y-2.9
X5.2Y-3.7
X5.6Y-3.7
X4.2953Y-3.7
X4.6953Y-3.7
X3.95Y-2.9
X4.35Y-2.9
X3.45Y-3.7
X3.85Y-3.7
X4.5Y-4.55
X4.9Y-4.55
X3.1Y-2.9
X3.5Y-2.9
X6.8Y-3.3
X7.2Y-3.3
T5
X4.2315Y-4.2744
X5.1685Y-4.2744
X6.7244Y-2.8315
X6.7244Y-3.7685
T6
X5.9Y-2.9
X5.05Y-2.9
X5.4Y-3.7
X4.4953Y-3.7
X4.15Y-2.9
X3.65Y-3.7
X4.2315Y-4.8744
X4.7Y-4.55
X5.1685Y-4.8744
X3.3Y-2.9
X7.0Y-3.3
X7.3244Y-2.8315
X7.3244Y-3.7685
T0
M30
